<svg width="455" height="106" viewBox="0 0 455 106" fill="none" xmlns="http://www.w3.org/2000/svg">
<path d="M28.5071 105.342C2.3109 105.342 -16.9907 24.2839 22.5071 2.34179C43.279 -9.19742 64.5098 24.237 82.4602 52.4551C98.5969 27.4853 111.555 8.26763 120.275 34.2851C125.991 51.3427 126.936 63.0234 120.275 79.2851C112.16 99.0936 98.6423 77.8934 82.4602 52.4551C67.0632 76.2802 48.7713 105.341 28.5071 105.342Z" fill="white"/>
<path d="M146 88.674V36.258H160.4V88.674H146ZM146 31.554V17.1539H160.4V31.554H146Z" fill="white"/>
<path d="M166.809 88.674V36.258H180.25V46.626L179.481 44.322C180.697 41.186 182.65 38.882 185.338 37.41C188.09 35.874 191.289 35.106 194.938 35.106C198.906 35.106 202.362 35.938 205.306 37.602C208.314 39.266 210.65 41.602 212.314 44.61C213.978 47.554 214.81 51.01 214.81 54.978V88.674H200.41V58.05C200.41 56.002 199.994 54.242 199.162 52.77C198.394 51.298 197.274 50.146 195.802 49.314C194.394 48.482 192.729 48.066 190.81 48.066C188.954 48.066 187.29 48.482 185.818 49.314C184.346 50.146 183.194 51.298 182.361 52.77C181.593 54.242 181.209 56.002 181.209 58.05V88.674H166.809Z" fill="white"/>
<path d="M235.629 88.674L214.989 36.258H230.541L244.845 75.906H238.893L253.197 36.258H268.749L248.109 88.674H235.629Z" fill="white"/>
<path d="M296.038 89.826C290.854 89.826 286.118 88.642 281.83 86.274C277.606 83.906 274.214 80.674 271.654 76.578C269.158 72.418 267.91 67.714 267.91 62.466C267.91 57.154 269.158 52.45 271.654 48.354C274.214 44.258 277.606 41.026 281.83 38.658C286.118 36.29 290.854 35.106 296.038 35.106C301.222 35.106 305.926 36.29 310.15 38.658C314.374 41.026 317.734 44.258 320.23 48.354C322.79 52.45 324.07 57.154 324.07 62.466C324.07 67.714 322.79 72.418 320.23 76.578C317.734 80.674 314.374 83.906 310.15 86.274C305.926 88.642 301.222 89.826 296.038 89.826ZM296.038 76.866C298.662 76.866 300.934 76.258 302.854 75.042C304.838 73.826 306.374 72.13 307.462 69.954C308.614 67.778 309.19 65.282 309.19 62.466C309.19 59.65 308.614 57.186 307.462 55.074C306.374 52.898 304.838 51.202 302.854 49.986C300.934 48.706 298.662 48.066 296.038 48.066C293.414 48.066 291.11 48.706 289.126 49.986C287.142 51.202 285.574 52.898 284.422 55.074C283.334 57.186 282.79 59.65 282.79 62.466C282.79 65.282 283.334 67.778 284.422 69.954C285.574 72.13 287.142 73.826 289.126 75.042C291.11 76.258 293.414 76.866 296.038 76.866Z" fill="white"/>
<path d="M354.442 89.826C349.258 89.826 344.521 88.642 340.234 86.274C336.01 83.906 332.618 80.674 330.058 76.578C327.562 72.418 326.314 67.714 326.314 62.466C326.314 57.154 327.562 52.45 330.058 48.354C332.618 44.258 336.01 41.026 340.234 38.658C344.521 36.29 349.258 35.106 354.442 35.106C359.626 35.106 364.33 36.29 368.554 38.658C372.778 41.026 376.138 44.258 378.634 48.354C381.194 52.45 382.474 57.154 382.474 62.466C382.474 67.714 381.194 72.418 378.634 76.578C376.138 80.674 372.778 83.906 368.554 86.274C364.33 88.642 359.626 89.826 354.442 89.826ZM354.442 76.866C357.066 76.866 359.338 76.258 361.258 75.042C363.242 73.826 364.778 72.13 365.866 69.954C367.018 67.778 367.594 65.282 367.594 62.466C367.594 59.65 367.018 57.186 365.866 55.074C364.778 52.898 363.242 51.202 361.258 49.986C359.338 48.706 357.066 48.066 354.442 48.066C351.818 48.066 349.514 48.706 347.53 49.986C345.546 51.202 343.977 52.898 342.826 55.074C341.738 57.186 341.194 59.65 341.194 62.466C341.194 65.282 341.738 67.778 342.826 69.954C343.977 72.13 345.546 73.826 347.53 75.042C349.514 76.258 351.818 76.866 354.442 76.866Z" fill="white"/>
<path d="M386.829 88.674V16.002H401.229V62.562L395.853 60.834L418.989 36.258H436.749L417.741 57.378L436.653 88.674H420.333L404.493 62.082L412.845 59.97L396.813 77.442L401.229 69.09V88.674H386.829Z" fill="white"/>
<path d="M441.15 16.002V8.68195H438.882V7.06195H445.242V8.68195H443.01V16.002H441.15ZM445.647 16.002V7.06195H447.447L450.795 11.502H449.955L453.207 7.06195H455.007V16.002H453.147V9.11395L453.891 9.28195L450.447 13.722H450.207L446.883 9.28195L447.507 9.11395V16.002H445.647Z" fill="white"/>
</svg>
